<svg xmlns="http://www.w3.org/2000/svg" viewBox="0 0 280 60" width="280" height="60">
  <defs>
    <linearGradient id="bagGradH" x1="0%" y1="0%" x2="100%" y2="100%">
      <stop offset="0%" style="stop-color:#4F46E5"/>
      <stop offset="100%" style="stop-color:#7C3AED"/>
    </linearGradient>
    <linearGradient id="boltGradH" x1="0%" y1="0%" x2="100%" y2="100%">
      <stop offset="0%" style="stop-color:#F59E0B"/>
      <stop offset="100%" style="stop-color:#FBBF24"/>
    </linearGradient>
    <filter id="shadowH" x="-20%" y="-20%" width="140%" height="140%">
      <feDropShadow dx="0" dy="2" stdDeviation="2" flood-color="#4F46E5" flood-opacity="0.2"/>
    </filter>
  </defs>
  
  <!-- Shopping Bag Body -->
  <path d="M8 18C8 16.3431 9.34315 15 11 15H45C46.6569 15 48 16.3431 48 18V50C48 51.6569 46.6569 53 45 53H11C9.34315 53 8 51.6569 8 50V18Z" fill="url(#bagGradH)" filter="url(#shadowH)"/>
  
  <!-- Bag Handle -->
  <path d="M17 15V11C17 6.58172 20.5817 3 25 3H31C35.4183 3 39 6.58172 39 11V15" stroke="url(#bagGradH)" stroke-width="4" fill="none" stroke-linecap="round"/>
  
  <!-- Lightning Bolt -->
  <path d="M31 20L20 35H27L24 48L38 32H30L35 20H31Z" fill="url(#boltGradH)"/>
  
  <!-- Text: ShopNex -->
  <text x="60" y="42" font-family="Poppins, Arial, sans-serif" font-size="32" font-weight="700" fill="#0F172A">
    Shop<tspan fill="#4F46E5">Nex</tspan>
  </text>
</svg>