<svg xmlns="http://www.w3.org/2000/svg" viewBox="0 0 120 120" width="120" height="120">
  <defs>
    <linearGradient id="bagGradS" x1="0%" y1="0%" x2="100%" y2="100%">
      <stop offset="0%" style="stop-color:#4F46E5"/>
      <stop offset="100%" style="stop-color:#7C3AED"/>
    </linearGradient>
    <linearGradient id="boltGradS" x1="0%" y1="0%" x2="100%" y2="100%">
      <stop offset="0%" style="stop-color:#F59E0B"/>
      <stop offset="100%" style="stop-color:#FBBF24"/>
    </linearGradient>
    <filter id="shadowS" x="-20%" y="-20%" width="140%" height="140%">
      <feDropShadow dx="0" dy="2" stdDeviation="3" flood-color="#4F46E5" flood-opacity="0.25"/>
    </filter>
  </defs>
  
  <!-- Shopping Bag Body -->
  <path d="M30 28C30 25.7909 31.7909 24 34 24H86C88.2091 24 90 25.7909 90 28V76C90 78.2091 88.2091 80 86 80H34C31.7909 80 30 78.2091 30 76V28Z" fill="url(#bagGradS)" filter="url(#shadowS)"/>
  
  <!-- Bag Handle -->
  <path d="M44 24V18C44 11.3726 49.3726 6 56 6H64C70.6274 6 76 11.3726 76 18V24" stroke="url(#bagGradS)" stroke-width="5" fill="none" stroke-linecap="round"/>
  
  <!-- Lightning Bolt -->
  <path d="M66 34L48 54H58L52 70L74 48H62L70 34H66Z" fill="url(#boltGradS)"/>
  
  <!-- Text: ShopNex -->
  <text x="60" y="102" text-anchor="middle" font-family="Poppins, Arial, sans-serif" font-size="18" font-weight="700" fill="#0F172A">
    Shop<tspan fill="#4F46E5">Nex</tspan>
  </text>
</svg>